<svg width="65" height="65" viewBox="0 0 65 65" fill="none" xmlns="http://www.w3.org/2000/svg">
<g filter="url(#filter0_b_134_380)">
<rect width="65" height="65" rx="10" fill="url(#paint0_linear_134_380)"/>
<rect x="0.5" y="0.5" width="64" height="64" rx="9.5" stroke="url(#paint1_linear_134_380)"/>
</g>
<path d="M5.368 59V50.6H8.992C9.928 50.6 10.652 50.788 11.164 51.164C11.684 51.54 11.944 52.072 11.944 52.76C11.944 53.216 11.836 53.6 11.62 53.912C11.412 54.224 11.124 54.46 10.756 54.62C10.396 54.78 10 54.86 9.568 54.86L9.772 54.572C10.308 54.572 10.768 54.656 11.152 54.824C11.544 54.984 11.848 55.228 12.064 55.556C12.28 55.876 12.388 56.276 12.388 56.756C12.388 57.468 12.124 58.02 11.596 58.412C11.076 58.804 10.288 59 9.232 59H5.368ZM6.256 58.268H9.22C9.956 58.268 10.52 58.144 10.912 57.896C11.304 57.64 11.5 57.236 11.5 56.684C11.5 56.14 11.304 55.744 10.912 55.496C10.52 55.24 9.956 55.112 9.22 55.112H6.16V54.38H8.932C9.604 54.38 10.124 54.252 10.492 53.996C10.868 53.74 11.056 53.36 11.056 52.856C11.056 52.344 10.868 51.964 10.492 51.716C10.124 51.46 9.604 51.332 8.932 51.332H6.256V58.268ZM16.8029 59.06C16.1949 59.06 15.6469 58.924 15.1589 58.652C14.6789 58.372 14.2989 57.992 14.0189 57.512C13.7389 57.024 13.5989 56.468 13.5989 55.844C13.5989 55.212 13.7389 54.656 14.0189 54.176C14.2989 53.696 14.6789 53.32 15.1589 53.048C15.6389 52.776 16.1869 52.64 16.8029 52.64C17.4269 52.64 17.9789 52.776 18.4589 53.048C18.9469 53.32 19.3269 53.696 19.5989 54.176C19.8789 54.656 20.0189 55.212 20.0189 55.844C20.0189 56.468 19.8789 57.024 19.5989 57.512C19.3269 57.992 18.9469 58.372 18.4589 58.652C17.9709 58.924 17.4189 59.06 16.8029 59.06ZM16.8029 58.304C17.2589 58.304 17.6629 58.204 18.0149 58.004C18.3669 57.796 18.6429 57.508 18.8429 57.14C19.0509 56.764 19.1549 56.332 19.1549 55.844C19.1549 55.348 19.0509 54.916 18.8429 54.548C18.6429 54.18 18.3669 53.896 18.0149 53.696C17.6629 53.488 17.2629 53.384 16.8149 53.384C16.3669 53.384 15.9669 53.488 15.6149 53.696C15.2629 53.896 14.9829 54.18 14.7749 54.548C14.5669 54.916 14.4629 55.348 14.4629 55.844C14.4629 56.332 14.5669 56.764 14.7749 57.14C14.9829 57.508 15.2629 57.796 15.6149 58.004C15.9669 58.204 16.3629 58.304 16.8029 58.304ZM24.3263 59.06C23.7183 59.06 23.1703 58.924 22.6823 58.652C22.2023 58.372 21.8223 57.992 21.5423 57.512C21.2623 57.024 21.1223 56.468 21.1223 55.844C21.1223 55.212 21.2623 54.656 21.5423 54.176C21.8223 53.696 22.2023 53.32 22.6823 53.048C23.1623 52.776 23.7103 52.64 24.3263 52.64C24.9503 52.64 25.5023 52.776 25.9823 53.048C26.4703 53.32 26.8503 53.696 27.1223 54.176C27.4023 54.656 27.5423 55.212 27.5423 55.844C27.5423 56.468 27.4023 57.024 27.1223 57.512C26.8503 57.992 26.4703 58.372 25.9823 58.652C25.4943 58.924 24.9423 59.06 24.3263 59.06ZM24.3263 58.304C24.7823 58.304 25.1863 58.204 25.5383 58.004C25.8903 57.796 26.1663 57.508 26.3663 57.14C26.5743 56.764 26.6783 56.332 26.6783 55.844C26.6783 55.348 26.5743 54.916 26.3663 54.548C26.1663 54.18 25.8903 53.896 25.5383 53.696C25.1863 53.488 24.7863 53.384 24.3383 53.384C23.8903 53.384 23.4903 53.488 23.1383 53.696C22.7863 53.896 22.5063 54.18 22.2983 54.548C22.0903 54.916 21.9863 55.348 21.9863 55.844C21.9863 56.332 22.0903 56.764 22.2983 57.14C22.5063 57.508 22.7863 57.796 23.1383 58.004C23.4903 58.204 23.8863 58.304 24.3263 58.304ZM29.9538 57.368L29.9778 56.276L33.9018 52.7H34.9458L32.1738 55.352L31.6938 55.76L29.9538 57.368ZM29.2818 59V50.096H30.1338V59H29.2818ZM34.1658 59L31.5378 55.724L32.0898 55.064L35.2098 59H34.1658ZM36.4888 59V52.7H37.3408V59H36.4888ZM36.9208 51.308C36.7448 51.308 36.5968 51.248 36.4768 51.128C36.3568 51.008 36.2968 50.864 36.2968 50.696C36.2968 50.528 36.3568 50.388 36.4768 50.276C36.5968 50.156 36.7448 50.096 36.9208 50.096C37.0968 50.096 37.2448 50.152 37.3648 50.264C37.4848 50.376 37.5448 50.516 37.5448 50.684C37.5448 50.86 37.4848 51.008 37.3648 51.128C37.2528 51.248 37.1048 51.308 36.9208 51.308ZM42.9274 52.64C43.4394 52.64 43.8874 52.74 44.2714 52.94C44.6634 53.132 44.9674 53.428 45.1834 53.828C45.4074 54.228 45.5194 54.732 45.5194 55.34V59H44.6674V55.424C44.6674 54.76 44.4994 54.26 44.1634 53.924C43.8354 53.58 43.3714 53.408 42.7714 53.408C42.3234 53.408 41.9314 53.5 41.5954 53.684C41.2674 53.86 41.0114 54.12 40.8274 54.464C40.6514 54.8 40.5634 55.208 40.5634 55.688V59H39.7114V52.7H40.5274V54.428L40.3954 54.104C40.5954 53.648 40.9154 53.292 41.3554 53.036C41.7954 52.772 42.3194 52.64 42.9274 52.64ZM50.5088 61.388C49.9328 61.388 49.3808 61.304 48.8528 61.136C48.3248 60.968 47.8968 60.728 47.5688 60.416L48.0008 59.768C48.2968 60.032 48.6608 60.24 49.0928 60.392C49.5328 60.552 49.9968 60.632 50.4848 60.632C51.2848 60.632 51.8728 60.444 52.2488 60.068C52.6248 59.7 52.8128 59.124 52.8128 58.34V56.768L52.9328 55.688L52.8488 54.608V52.7H53.6648V58.232C53.6648 59.32 53.3968 60.116 52.8608 60.62C52.3328 61.132 51.5488 61.388 50.5088 61.388ZM50.3528 58.76C49.7528 58.76 49.2128 58.632 48.7328 58.376C48.2528 58.112 47.8728 57.748 47.5928 57.284C47.3208 56.82 47.1848 56.288 47.1848 55.688C47.1848 55.088 47.3208 54.56 47.5928 54.104C47.8728 53.64 48.2528 53.28 48.7328 53.024C49.2128 52.768 49.7528 52.64 50.3528 52.64C50.9128 52.64 51.4168 52.756 51.8648 52.988C52.3128 53.22 52.6688 53.564 52.9328 54.02C53.1968 54.476 53.3288 55.032 53.3288 55.688C53.3288 56.344 53.1968 56.9 52.9328 57.356C52.6688 57.812 52.3128 58.16 51.8648 58.4C51.4168 58.64 50.9128 58.76 50.3528 58.76ZM50.4368 58.004C50.9008 58.004 51.3128 57.908 51.6728 57.716C52.0328 57.516 52.3168 57.244 52.5248 56.9C52.7328 56.548 52.8368 56.144 52.8368 55.688C52.8368 55.232 52.7328 54.832 52.5248 54.488C52.3168 54.144 52.0328 53.876 51.6728 53.684C51.3128 53.484 50.9008 53.384 50.4368 53.384C49.9808 53.384 49.5688 53.484 49.2008 53.684C48.8408 53.876 48.5568 54.144 48.3488 54.488C48.1488 54.832 48.0488 55.232 48.0488 55.688C48.0488 56.144 48.1488 56.548 48.3488 56.9C48.5568 57.244 48.8408 57.516 49.2008 57.716C49.5688 57.908 49.9808 58.004 50.4368 58.004ZM57.7277 59.06C57.2077 59.06 56.7157 58.988 56.2517 58.844C55.7877 58.692 55.4237 58.504 55.1597 58.28L55.5437 57.608C55.7997 57.8 56.1277 57.968 56.5277 58.112C56.9277 58.248 57.3477 58.316 57.7877 58.316C58.3877 58.316 58.8197 58.224 59.0837 58.04C59.3477 57.848 59.4797 57.596 59.4797 57.284C59.4797 57.052 59.4037 56.872 59.2517 56.744C59.1077 56.608 58.9157 56.508 58.6757 56.444C58.4357 56.372 58.1677 56.312 57.8717 56.264C57.5757 56.216 57.2797 56.16 56.9837 56.096C56.6957 56.032 56.4317 55.94 56.1917 55.82C55.9517 55.692 55.7557 55.52 55.6037 55.304C55.4597 55.088 55.3877 54.8 55.3877 54.44C55.3877 54.096 55.4837 53.788 55.6757 53.516C55.8677 53.244 56.1477 53.032 56.5157 52.88C56.8917 52.72 57.3477 52.64 57.8837 52.64C58.2917 52.64 58.6997 52.696 59.1077 52.808C59.5157 52.912 59.8517 53.052 60.1157 53.228L59.7437 53.912C59.4637 53.72 59.1637 53.584 58.8437 53.504C58.5237 53.416 58.2037 53.372 57.8837 53.372C57.3157 53.372 56.8957 53.472 56.6237 53.672C56.3597 53.864 56.2277 54.112 56.2277 54.416C56.2277 54.656 56.2997 54.844 56.4437 54.98C56.5957 55.116 56.7917 55.224 57.0317 55.304C57.2797 55.376 57.5477 55.436 57.8357 55.484C58.1317 55.532 58.4237 55.592 58.7117 55.664C59.0077 55.728 59.2757 55.82 59.5157 55.94C59.7637 56.052 59.9597 56.216 60.1037 56.432C60.2557 56.64 60.3317 56.916 60.3317 57.26C60.3317 57.628 60.2277 57.948 60.0197 58.22C59.8197 58.484 59.5237 58.692 59.1317 58.844C58.7477 58.988 58.2797 59.06 57.7277 59.06Z" fill="white"/>
<rect x="27.0908" y="15" width="18.9091" height="18.9092" rx="9.45455" fill="white" fill-opacity="0.25"/>
<g filter="url(#filter1_b_134_380)">
<path fill-rule="evenodd" clip-rule="evenodd" d="M30.0455 41.0002C27.7607 38.9472 24.3084 38.5848 21.6117 39.9133C20.8695 40.2778 20 39.7803 20 38.9582V26.4239C20 25.7514 20.3069 25.1065 20.8438 24.6966C23.6219 22.5726 27.5374 22.8253 30.0455 25.4544C32.5535 22.8253 36.469 22.5726 39.2471 24.6977C39.784 25.1076 40.0909 25.7525 40.0909 26.4239V38.9571C40.0909 39.7792 39.2214 40.2778 38.4792 39.9122C35.7825 38.5848 32.3302 38.9472 30.0455 41.0002Z" fill="white" fill-opacity="0.32"/>
<path fill-rule="evenodd" clip-rule="evenodd" d="M30.0455 41.0002C27.7607 38.9472 24.3084 38.5848 21.6117 39.9133C20.8695 40.2778 20 39.7803 20 38.9582V26.4239C20 25.7514 20.3069 25.1065 20.8438 24.6966C23.6219 22.5726 27.5374 22.8253 30.0455 25.4544C32.5535 22.8253 36.469 22.5726 39.2471 24.6977C39.784 25.1076 40.0909 25.7525 40.0909 26.4239V38.9571C40.0909 39.7792 39.2214 40.2778 38.4792 39.9122C35.7825 38.5848 32.3302 38.9472 30.0455 41.0002Z" stroke="url(#paint2_linear_134_380)" stroke-width="0.5" stroke-linecap="round" stroke-linejoin="round"/>
</g>
<g filter="url(#filter2_bdii_134_380)">
<path d="M30.0455 36.8641V28.5913" stroke="url(#paint3_linear_134_380)" stroke-width="4" stroke-linecap="round" stroke-linejoin="round"/>
</g>
<defs>
<filter id="filter0_b_134_380" x="-10" y="-10" width="85" height="85" filterUnits="userSpaceOnUse" color-interpolation-filters="sRGB">
<feFlood flood-opacity="0" result="BackgroundImageFix"/>
<feGaussianBlur in="BackgroundImage" stdDeviation="5"/>
<feComposite in2="SourceAlpha" operator="in" result="effect1_backgroundBlur_134_380"/>
<feBlend mode="normal" in="SourceGraphic" in2="effect1_backgroundBlur_134_380" result="shape"/>
</filter>
<filter id="filter1_b_134_380" x="-4.25" y="-0.977051" width="68.5908" height="66.1631" filterUnits="userSpaceOnUse" color-interpolation-filters="sRGB">
<feFlood flood-opacity="0" result="BackgroundImageFix"/>
<feGaussianBlur in="BackgroundImage" stdDeviation="12"/>
<feComposite in2="SourceAlpha" operator="in" result="effect1_backgroundBlur_134_380"/>
<feBlend mode="normal" in="SourceGraphic" in2="effect1_backgroundBlur_134_380" result="shape"/>
</filter>
<filter id="filter2_bdii_134_380" x="14.0454" y="12.5913" width="33" height="41.2729" filterUnits="userSpaceOnUse" color-interpolation-filters="sRGB">
<feFlood flood-opacity="0" result="BackgroundImageFix"/>
<feGaussianBlur in="BackgroundImage" stdDeviation="7"/>
<feComposite in2="SourceAlpha" operator="in" result="effect1_backgroundBlur_134_380"/>
<feColorMatrix in="SourceAlpha" type="matrix" values="0 0 0 0 0 0 0 0 0 0 0 0 0 0 0 0 0 0 127 0" result="hardAlpha"/>
<feOffset dx="5" dy="5"/>
<feGaussianBlur stdDeviation="5"/>
<feColorMatrix type="matrix" values="0 0 0 0 0.7375 0 0 0 0 0.398711 0 0 0 0 0.350313 0 0 0 0.5 0"/>
<feBlend mode="normal" in2="effect1_backgroundBlur_134_380" result="effect2_dropShadow_134_380"/>
<feBlend mode="normal" in="SourceGraphic" in2="effect2_dropShadow_134_380" result="shape"/>
<feColorMatrix in="SourceAlpha" type="matrix" values="0 0 0 0 0 0 0 0 0 0 0 0 0 0 0 0 0 0 127 0" result="hardAlpha"/>
<feOffset dy="0.2"/>
<feComposite in2="hardAlpha" operator="arithmetic" k2="-1" k3="1"/>
<feColorMatrix type="matrix" values="0 0 0 0 1 0 0 0 0 1 0 0 0 0 1 0 0 0 0.25 0"/>
<feBlend mode="normal" in2="shape" result="effect3_innerShadow_134_380"/>
<feColorMatrix in="SourceAlpha" type="matrix" values="0 0 0 0 0 0 0 0 0 0 0 0 0 0 0 0 0 0 127 0" result="hardAlpha"/>
<feOffset dy="-0.2"/>
<feComposite in2="hardAlpha" operator="arithmetic" k2="-1" k3="1"/>
<feColorMatrix type="matrix" values="0 0 0 0 0.984314 0 0 0 0 0.484706 0 0 0 0 0.270588 0 0 0 0.35 0"/>
<feBlend mode="normal" in2="effect3_innerShadow_134_380" result="effect4_innerShadow_134_380"/>
</filter>
<linearGradient id="paint0_linear_134_380" x1="4.33333" y1="29.0538" x2="61.2083" y2="30.6788" gradientUnits="userSpaceOnUse">
<stop stop-color="white" stop-opacity="0.1"/>
<stop offset="1" stop-color="white" stop-opacity="0.1"/>
</linearGradient>
<linearGradient id="paint1_linear_134_380" x1="4.875" y1="3.05375" x2="60.6667" y2="61.5538" gradientUnits="userSpaceOnUse">
<stop stop-color="#00F0FF" stop-opacity="0.25"/>
<stop offset="0.515625" stop-color="#00FFFF"/>
<stop offset="1" stop-color="#00F0FF" stop-opacity="0.25"/>
</linearGradient>
<linearGradient id="paint2_linear_134_380" x1="23.1981" y1="25.3382" x2="34.1314" y2="40.6848" gradientUnits="userSpaceOnUse">
<stop stop-color="white" stop-opacity="0.25"/>
<stop offset="1" stop-color="white" stop-opacity="0"/>
</linearGradient>
<linearGradient id="paint3_linear_134_380" x1="30.2228" y1="23.7655" x2="16.8594" y2="32.5822" gradientUnits="userSpaceOnUse">
<stop stop-color="white" stop-opacity="0.88"/>
<stop offset="1" stop-color="white" stop-opacity="0"/>
</linearGradient>
</defs>
</svg>
