<svg width="65" height="65" viewBox="0 0 65 65" fill="none" xmlns="http://www.w3.org/2000/svg">
<g filter="url(#filter0_b_134_340)">
<rect width="65" height="65" rx="10" fill="url(#paint0_linear_134_340)"/>
<rect x="1" y="1" width="63" height="63" rx="9" stroke="url(#paint1_linear_134_340)" stroke-width="2"/>
</g>
<path d="M20.512 50.6H21.388V59H20.512V50.6ZM15.256 59H14.368V50.6H15.256V59ZM20.596 55.124H15.16V54.344H20.596V55.124ZM26.5177 59.06C25.9097 59.06 25.3617 58.924 24.8737 58.652C24.3937 58.372 24.0137 57.992 23.7337 57.512C23.4537 57.024 23.3137 56.468 23.3137 55.844C23.3137 55.212 23.4537 54.656 23.7337 54.176C24.0137 53.696 24.3937 53.32 24.8737 53.048C25.3537 52.776 25.9017 52.64 26.5177 52.64C27.1417 52.64 27.6937 52.776 28.1737 53.048C28.6617 53.32 29.0417 53.696 29.3137 54.176C29.5937 54.656 29.7337 55.212 29.7337 55.844C29.7337 56.468 29.5937 57.024 29.3137 57.512C29.0417 57.992 28.6617 58.372 28.1737 58.652C27.6857 58.924 27.1337 59.06 26.5177 59.06ZM26.5177 58.304C26.9737 58.304 27.3777 58.204 27.7297 58.004C28.0817 57.796 28.3577 57.508 28.5577 57.14C28.7657 56.764 28.8697 56.332 28.8697 55.844C28.8697 55.348 28.7657 54.916 28.5577 54.548C28.3577 54.18 28.0817 53.896 27.7297 53.696C27.3777 53.488 26.9777 53.384 26.5297 53.384C26.0817 53.384 25.6817 53.488 25.3297 53.696C24.9777 53.896 24.6977 54.18 24.4897 54.548C24.2817 54.916 24.1777 55.348 24.1777 55.844C24.1777 56.332 24.2817 56.764 24.4897 57.14C24.6977 57.508 24.9777 57.796 25.3297 58.004C25.6817 58.204 26.0777 58.304 26.5177 58.304ZM39.3452 52.64C39.8572 52.64 40.3012 52.74 40.6772 52.94C41.0612 53.132 41.3572 53.428 41.5652 53.828C41.7812 54.228 41.8892 54.732 41.8892 55.34V59H41.0372V55.424C41.0372 54.76 40.8772 54.26 40.5572 53.924C40.2452 53.58 39.8012 53.408 39.2252 53.408C38.7932 53.408 38.4172 53.5 38.0972 53.684C37.7852 53.86 37.5412 54.12 37.3652 54.464C37.1972 54.8 37.1132 55.208 37.1132 55.688V59H36.2612V55.424C36.2612 54.76 36.1012 54.26 35.7812 53.924C35.4612 53.58 35.0132 53.408 34.4372 53.408C34.0132 53.408 33.6412 53.5 33.3212 53.684C33.0012 53.86 32.7532 54.12 32.5772 54.464C32.4092 54.8 32.3252 55.208 32.3252 55.688V59H31.4732V52.7H32.2892V54.404L32.1572 54.104C32.3492 53.648 32.6572 53.292 33.0812 53.036C33.5132 52.772 34.0212 52.64 34.6052 52.64C35.2212 52.64 35.7452 52.796 36.1772 53.108C36.6092 53.412 36.8892 53.872 37.0172 54.488L36.6812 54.356C36.8652 53.844 37.1892 53.432 37.6532 53.12C38.1252 52.8 38.6892 52.64 39.3452 52.64ZM46.8757 59.06C46.2197 59.06 45.6437 58.924 45.1477 58.652C44.6517 58.372 44.2637 57.992 43.9837 57.512C43.7037 57.024 43.5637 56.468 43.5637 55.844C43.5637 55.22 43.6957 54.668 43.9597 54.188C44.2317 53.708 44.5997 53.332 45.0637 53.06C45.5357 52.78 46.0637 52.64 46.6477 52.64C47.2397 52.64 47.7637 52.776 48.2197 53.048C48.6837 53.312 49.0477 53.688 49.3117 54.176C49.5757 54.656 49.7077 55.212 49.7077 55.844C49.7077 55.884 49.7037 55.928 49.6957 55.976C49.6957 56.016 49.6957 56.06 49.6957 56.108H44.2117V55.472H49.2397L48.9037 55.724C48.9037 55.268 48.8037 54.864 48.6037 54.512C48.4117 54.152 48.1477 53.872 47.8117 53.672C47.4757 53.472 47.0877 53.372 46.6477 53.372C46.2157 53.372 45.8277 53.472 45.4837 53.672C45.1397 53.872 44.8717 54.152 44.6797 54.512C44.4877 54.872 44.3917 55.284 44.3917 55.748V55.88C44.3917 56.36 44.4957 56.784 44.7037 57.152C44.9197 57.512 45.2157 57.796 45.5917 58.004C45.9757 58.204 46.4117 58.304 46.8997 58.304C47.2837 58.304 47.6397 58.236 47.9677 58.1C48.3037 57.964 48.5917 57.756 48.8317 57.476L49.3117 58.028C49.0317 58.364 48.6797 58.62 48.2557 58.796C47.8397 58.972 47.3797 59.06 46.8757 59.06Z" fill="white"/>
<rect x="26.9058" y="12" width="18.4459" height="18.4459" rx="9.22297" fill="white" fill-opacity="0.25"/>
<g filter="url(#filter1_b_134_340)">
<path d="M37.9032 24.0961L31.169 18.858C29.9535 17.9119 28.2508 17.9119 27.0342 18.858L20.3 24.0961C19.4795 24.7336 19.0002 25.7145 19.0002 26.7538V34.9841C19.0002 36.8438 20.5076 38.3511 22.3674 38.3511H35.8358C37.6956 38.3511 39.2029 36.8438 39.2029 34.9841V26.7538C39.2029 25.7145 38.7237 24.7336 37.9032 24.0961Z" fill="white" fill-opacity="0.32"/>
<path d="M37.9032 24.0961L31.169 18.858C29.9535 17.9119 28.2508 17.9119 27.0342 18.858L20.3 24.0961C19.4795 24.7336 19.0002 25.7145 19.0002 26.7538V34.9841C19.0002 36.8438 20.5076 38.3511 22.3674 38.3511H35.8358C37.6956 38.3511 39.2029 36.8438 39.2029 34.9841V26.7538C39.2029 25.7145 38.7237 24.7336 37.9032 24.0961Z" stroke="url(#paint2_linear_134_340)" stroke-width="0.5"/>
</g>
<g filter="url(#filter2_bdii_134_340)">
<rect x="25.5366" y="33.5977" width="7.13047" height="1.18839" rx="0.594197" fill="url(#paint3_linear_134_340)"/>
</g>
<defs>
<filter id="filter0_b_134_340" x="-10" y="-10" width="85" height="85" filterUnits="userSpaceOnUse" color-interpolation-filters="sRGB">
<feFlood flood-opacity="0" result="BackgroundImageFix"/>
<feGaussianBlur in="BackgroundImage" stdDeviation="5"/>
<feComposite in2="SourceAlpha" operator="in" result="effect1_backgroundBlur_134_340"/>
<feBlend mode="normal" in="SourceGraphic" in2="effect1_backgroundBlur_134_340" result="shape"/>
</filter>
<filter id="filter1_b_134_340" x="-5.24976" y="-6.10156" width="68.7026" height="68.7026" filterUnits="userSpaceOnUse" color-interpolation-filters="sRGB">
<feFlood flood-opacity="0" result="BackgroundImageFix"/>
<feGaussianBlur in="BackgroundImage" stdDeviation="12"/>
<feComposite in2="SourceAlpha" operator="in" result="effect1_backgroundBlur_134_340"/>
<feBlend mode="normal" in="SourceGraphic" in2="effect1_backgroundBlur_134_340" result="shape"/>
</filter>
<filter id="filter2_bdii_134_340" x="11.5366" y="19.5977" width="36.1304" height="30.1885" filterUnits="userSpaceOnUse" color-interpolation-filters="sRGB">
<feFlood flood-opacity="0" result="BackgroundImageFix"/>
<feGaussianBlur in="BackgroundImage" stdDeviation="7"/>
<feComposite in2="SourceAlpha" operator="in" result="effect1_backgroundBlur_134_340"/>
<feColorMatrix in="SourceAlpha" type="matrix" values="0 0 0 0 0 0 0 0 0 0 0 0 0 0 0 0 0 0 127 0" result="hardAlpha"/>
<feOffset dx="5" dy="5"/>
<feGaussianBlur stdDeviation="5"/>
<feColorMatrix type="matrix" values="0 0 0 0 0.577356 0 0 0 0 0.359375 0 0 0 0 0.9375 0 0 0 0.5 0"/>
<feBlend mode="normal" in2="effect1_backgroundBlur_134_340" result="effect2_dropShadow_134_340"/>
<feBlend mode="normal" in="SourceGraphic" in2="effect2_dropShadow_134_340" result="shape"/>
<feColorMatrix in="SourceAlpha" type="matrix" values="0 0 0 0 0 0 0 0 0 0 0 0 0 0 0 0 0 0 127 0" result="hardAlpha"/>
<feOffset dy="0.2"/>
<feComposite in2="hardAlpha" operator="arithmetic" k2="-1" k3="1"/>
<feColorMatrix type="matrix" values="0 0 0 0 1 0 0 0 0 1 0 0 0 0 1 0 0 0 0.25 0"/>
<feBlend mode="normal" in2="shape" result="effect3_innerShadow_134_340"/>
<feColorMatrix in="SourceAlpha" type="matrix" values="0 0 0 0 0 0 0 0 0 0 0 0 0 0 0 0 0 0 127 0" result="hardAlpha"/>
<feOffset dy="-0.2"/>
<feComposite in2="hardAlpha" operator="arithmetic" k2="-1" k3="1"/>
<feColorMatrix type="matrix" values="0 0 0 0 0.50206 0 0 0 0 0.166476 0 0 0 0 0.929167 0 0 0 0.27 0"/>
<feBlend mode="normal" in2="effect3_innerShadow_134_340" result="effect4_innerShadow_134_340"/>
</filter>
<linearGradient id="paint0_linear_134_340" x1="4.33333" y1="29.0538" x2="61.2083" y2="30.6788" gradientUnits="userSpaceOnUse">
<stop stop-color="white" stop-opacity="0.1"/>
<stop offset="1" stop-color="white" stop-opacity="0.1"/>
</linearGradient>
<linearGradient id="paint1_linear_134_340" x1="4.875" y1="3.05375" x2="60.6667" y2="61.5538" gradientUnits="userSpaceOnUse">
<stop stop-color="#FF31A0"/>
<stop offset="0.515625" stop-color="#00FFFF"/>
<stop offset="1" stop-color="#FF31A0"/>
</linearGradient>
<linearGradient id="paint2_linear_134_340" x1="22.2162" y1="20.5021" x2="35.1034" y2="36.4632" gradientUnits="userSpaceOnUse">
<stop stop-color="white" stop-opacity="0.25"/>
<stop offset="1" stop-color="white" stop-opacity="0"/>
</linearGradient>
<linearGradient id="paint3_linear_134_340" x1="30.1714" y1="32.9044" x2="30.0209" y2="37.0751" gradientUnits="userSpaceOnUse">
<stop stop-color="white" stop-opacity="0.88"/>
<stop offset="1" stop-color="white" stop-opacity="0"/>
</linearGradient>
</defs>
</svg>
