<svg width="65" height="65" viewBox="0 0 65 65" fill="none" xmlns="http://www.w3.org/2000/svg">
<g filter="url(#filter0_b_134_404)">
<rect width="65" height="65" rx="10" fill="url(#paint0_linear_134_404)"/>
<rect x="0.5" y="0.5" width="64" height="64" rx="9.5" stroke="url(#paint1_linear_134_404)"/>
</g>
<path d="M9.368 59V50.6H12.512C13.224 50.6 13.836 50.716 14.348 50.948C14.86 51.172 15.252 51.5 15.524 51.932C15.804 52.356 15.944 52.872 15.944 53.48C15.944 54.072 15.804 54.584 15.524 55.016C15.252 55.44 14.86 55.768 14.348 56C13.836 56.224 13.224 56.336 12.512 56.336H9.86L10.256 55.928V59H9.368ZM15.104 59L12.944 55.952H13.904L16.076 59H15.104ZM10.256 56L9.86 55.58H12.488C13.328 55.58 13.964 55.396 14.396 55.028C14.836 54.66 15.056 54.144 15.056 53.48C15.056 52.808 14.836 52.288 14.396 51.92C13.964 51.552 13.328 51.368 12.488 51.368H9.86L10.256 50.948V56ZM20.5359 59.06C19.8799 59.06 19.3039 58.924 18.8079 58.652C18.3119 58.372 17.9239 57.992 17.6439 57.512C17.3639 57.024 17.2239 56.468 17.2239 55.844C17.2239 55.22 17.3559 54.668 17.6199 54.188C17.8919 53.708 18.2599 53.332 18.7239 53.06C19.1959 52.78 19.7239 52.64 20.3079 52.64C20.8999 52.64 21.4239 52.776 21.8799 53.048C22.3439 53.312 22.7079 53.688 22.9719 54.176C23.2359 54.656 23.3679 55.212 23.3679 55.844C23.3679 55.884 23.3639 55.928 23.3559 55.976C23.3559 56.016 23.3559 56.06 23.3559 56.108H17.8719V55.472H22.8999L22.5639 55.724C22.5639 55.268 22.4639 54.864 22.2639 54.512C22.0719 54.152 21.8079 53.872 21.4719 53.672C21.1359 53.472 20.7479 53.372 20.3079 53.372C19.8759 53.372 19.4879 53.472 19.1439 53.672C18.7999 53.872 18.5319 54.152 18.3399 54.512C18.1479 54.872 18.0519 55.284 18.0519 55.748V55.88C18.0519 56.36 18.1559 56.784 18.3639 57.152C18.5799 57.512 18.8759 57.796 19.2519 58.004C19.6359 58.204 20.0719 58.304 20.5599 58.304C20.9439 58.304 21.2999 58.236 21.6279 58.1C21.9639 57.964 22.2519 57.756 22.4919 57.476L22.9719 58.028C22.6919 58.364 22.3399 58.62 21.9159 58.796C21.4999 58.972 21.0399 59.06 20.5359 59.06ZM27.7181 59.06C27.0941 59.06 26.5341 58.924 26.0381 58.652C25.5501 58.372 25.1661 57.992 24.8861 57.512C24.6061 57.024 24.4661 56.468 24.4661 55.844C24.4661 55.212 24.6061 54.656 24.8861 54.176C25.1661 53.696 25.5501 53.32 26.0381 53.048C26.5341 52.776 27.0941 52.64 27.7181 52.64C28.2541 52.64 28.7381 52.744 29.1701 52.952C29.6021 53.16 29.9421 53.472 30.1901 53.888L29.5541 54.32C29.3381 54 29.0701 53.764 28.7501 53.612C28.4301 53.46 28.0821 53.384 27.7061 53.384C27.2581 53.384 26.8541 53.488 26.4941 53.696C26.1341 53.896 25.8501 54.18 25.6421 54.548C25.4341 54.916 25.3301 55.348 25.3301 55.844C25.3301 56.34 25.4341 56.772 25.6421 57.14C25.8501 57.508 26.1341 57.796 26.4941 58.004C26.8541 58.204 27.2581 58.304 27.7061 58.304C28.0821 58.304 28.4301 58.228 28.7501 58.076C29.0701 57.924 29.3381 57.692 29.5541 57.38L30.1901 57.812C29.9421 58.22 29.6021 58.532 29.1701 58.748C28.7381 58.956 28.2541 59.06 27.7181 59.06ZM34.3263 59.06C33.7183 59.06 33.1703 58.924 32.6823 58.652C32.2023 58.372 31.8223 57.992 31.5423 57.512C31.2623 57.024 31.1223 56.468 31.1223 55.844C31.1223 55.212 31.2623 54.656 31.5423 54.176C31.8223 53.696 32.2023 53.32 32.6823 53.048C33.1623 52.776 33.7103 52.64 34.3263 52.64C34.9503 52.64 35.5023 52.776 35.9823 53.048C36.4703 53.32 36.8503 53.696 37.1223 54.176C37.4023 54.656 37.5423 55.212 37.5423 55.844C37.5423 56.468 37.4023 57.024 37.1223 57.512C36.8503 57.992 36.4703 58.372 35.9823 58.652C35.4943 58.924 34.9423 59.06 34.3263 59.06ZM34.3263 58.304C34.7823 58.304 35.1863 58.204 35.5383 58.004C35.8903 57.796 36.1663 57.508 36.3663 57.14C36.5743 56.764 36.6783 56.332 36.6783 55.844C36.6783 55.348 36.5743 54.916 36.3663 54.548C36.1663 54.18 35.8903 53.896 35.5383 53.696C35.1863 53.488 34.7863 53.384 34.3383 53.384C33.8903 53.384 33.4903 53.488 33.1383 53.696C32.7863 53.896 32.5063 54.18 32.2983 54.548C32.0903 54.916 31.9863 55.348 31.9863 55.844C31.9863 56.332 32.0903 56.764 32.2983 57.14C32.5063 57.508 32.7863 57.796 33.1383 58.004C33.4903 58.204 33.8863 58.304 34.3263 58.304ZM39.2818 59V52.7H40.0978V54.416L40.0138 54.116C40.1898 53.636 40.4858 53.272 40.9018 53.024C41.3178 52.768 41.8338 52.64 42.4498 52.64V53.468C42.4178 53.468 42.3858 53.468 42.3538 53.468C42.3218 53.46 42.2898 53.456 42.2578 53.456C41.5938 53.456 41.0738 53.66 40.6978 54.068C40.3218 54.468 40.1338 55.04 40.1338 55.784V59H39.2818ZM46.4538 59.06C45.8538 59.06 45.3138 58.924 44.8338 58.652C44.3618 58.38 43.9898 58.004 43.7178 57.524C43.4458 57.036 43.3098 56.476 43.3098 55.844C43.3098 55.204 43.4458 54.644 43.7178 54.164C43.9898 53.684 44.3618 53.312 44.8338 53.048C45.3138 52.776 45.8538 52.64 46.4538 52.64C47.0058 52.64 47.4978 52.764 47.9298 53.012C48.3698 53.26 48.7178 53.624 48.9738 54.104C49.2378 54.576 49.3698 55.156 49.3698 55.844C49.3698 56.524 49.2418 57.104 48.9858 57.584C48.7298 58.064 48.3818 58.432 47.9418 58.688C47.5098 58.936 47.0138 59.06 46.4538 59.06ZM46.5138 58.304C46.9618 58.304 47.3618 58.204 47.7138 58.004C48.0738 57.796 48.3538 57.508 48.5538 57.14C48.7618 56.764 48.8658 56.332 48.8658 55.844C48.8658 55.348 48.7618 54.916 48.5538 54.548C48.3538 54.18 48.0738 53.896 47.7138 53.696C47.3618 53.488 46.9618 53.384 46.5138 53.384C46.0738 53.384 45.6778 53.488 45.3258 53.696C44.9738 53.896 44.6938 54.18 44.4858 54.548C44.2778 54.916 44.1738 55.348 44.1738 55.844C44.1738 56.332 44.2778 56.764 44.4858 57.14C44.6938 57.508 44.9738 57.796 45.3258 58.004C45.6778 58.204 46.0738 58.304 46.5138 58.304ZM48.8898 59V57.104L48.9738 55.832L48.8538 54.56V50.096H49.7058V59H48.8898ZM53.7706 59.06C53.2506 59.06 52.7586 58.988 52.2946 58.844C51.8306 58.692 51.4666 58.504 51.2026 58.28L51.5866 57.608C51.8426 57.8 52.1706 57.968 52.5706 58.112C52.9706 58.248 53.3906 58.316 53.8306 58.316C54.4306 58.316 54.8626 58.224 55.1266 58.04C55.3906 57.848 55.5226 57.596 55.5226 57.284C55.5226 57.052 55.4466 56.872 55.2946 56.744C55.1506 56.608 54.9586 56.508 54.7186 56.444C54.4786 56.372 54.2106 56.312 53.9146 56.264C53.6186 56.216 53.3226 56.16 53.0266 56.096C52.7386 56.032 52.4746 55.94 52.2346 55.82C51.9946 55.692 51.7986 55.52 51.6466 55.304C51.5026 55.088 51.4306 54.8 51.4306 54.44C51.4306 54.096 51.5266 53.788 51.7186 53.516C51.9106 53.244 52.1906 53.032 52.5586 52.88C52.9346 52.72 53.3906 52.64 53.9266 52.64C54.3346 52.64 54.7426 52.696 55.1506 52.808C55.5586 52.912 55.8946 53.052 56.1586 53.228L55.7866 53.912C55.5066 53.72 55.2066 53.584 54.8866 53.504C54.5666 53.416 54.2466 53.372 53.9266 53.372C53.3586 53.372 52.9386 53.472 52.6666 53.672C52.4026 53.864 52.2706 54.112 52.2706 54.416C52.2706 54.656 52.3426 54.844 52.4866 54.98C52.6386 55.116 52.8346 55.224 53.0746 55.304C53.3226 55.376 53.5906 55.436 53.8786 55.484C54.1746 55.532 54.4666 55.592 54.7546 55.664C55.0506 55.728 55.3186 55.82 55.5586 55.94C55.8066 56.052 56.0026 56.216 56.1466 56.432C56.2986 56.64 56.3746 56.916 56.3746 57.26C56.3746 57.628 56.2706 57.948 56.0626 58.22C55.8626 58.484 55.5666 58.692 55.1746 58.844C54.7906 58.988 54.3226 59.06 53.7706 59.06Z" fill="white"/>
<path d="M28.1868 18.9753C29.0116 16.4453 29.424 15.1803 30.2331 14.3739C30.9447 13.6646 31.8634 13.1981 32.8575 13.0411C33.9876 12.8627 35.2568 13.2738 37.7953 14.0958L40.0049 14.8114C42.5433 15.6335 43.8126 16.0445 44.6216 16.8509C45.3333 17.5602 45.8014 18.4758 45.9588 19.4665C46.1378 20.5929 45.7254 21.8579 44.9006 24.3879L43.7224 28.0019C42.8976 30.532 42.4852 31.797 41.6762 32.6034C40.9645 33.3127 40.0458 33.7792 39.0518 33.9361C37.9217 34.1145 36.6525 33.7035 34.114 32.8814L31.9044 32.1659C29.3659 31.3438 28.0967 30.9328 27.2876 30.1264C26.576 29.4171 26.1079 28.5015 25.9505 27.5107C25.7715 26.3844 26.1839 25.1194 27.0087 22.5893L28.1868 18.9753Z" fill="white" fill-opacity="0.25"/>
<g filter="url(#filter1_b_134_404)">
<rect x="20" y="18.9092" width="18.3182" height="20.0909" rx="5" fill="white" fill-opacity="0.32"/>
<rect x="20.25" y="19.1592" width="17.8182" height="19.5909" rx="4.75" stroke="url(#paint2_linear_134_404)" stroke-width="0.5"/>
</g>
<g filter="url(#filter2_bdii_134_404)">
<path fill-rule="evenodd" clip-rule="evenodd" d="M24.7274 23.0454C24.401 23.0454 24.1365 23.31 24.1365 23.6363C24.1365 23.9627 24.401 24.2272 24.7274 24.2272H33.591C33.9174 24.2272 34.1819 23.9627 34.1819 23.6363C34.1819 23.31 33.9174 23.0454 33.591 23.0454H24.7274ZM24.1365 26.5909C24.1365 26.2645 24.401 26 24.7274 26H33.591C33.9174 26 34.1819 26.2645 34.1819 26.5909C34.1819 26.9172 33.9174 27.1818 33.591 27.1818H24.7274C24.401 27.1818 24.1365 26.9172 24.1365 26.5909ZM24.1365 29.5454C24.1365 29.2191 24.401 28.9545 24.7274 28.9545H27.6819C28.0083 28.9545 28.2728 29.2191 28.2728 29.5454C28.2728 29.8718 28.0083 30.1363 27.6819 30.1363H24.7274C24.401 30.1363 24.1365 29.8718 24.1365 29.5454Z" fill="url(#paint3_linear_134_404)"/>
</g>
<defs>
<filter id="filter0_b_134_404" x="-10" y="-10" width="85" height="85" filterUnits="userSpaceOnUse" color-interpolation-filters="sRGB">
<feFlood flood-opacity="0" result="BackgroundImageFix"/>
<feGaussianBlur in="BackgroundImage" stdDeviation="5"/>
<feComposite in2="SourceAlpha" operator="in" result="effect1_backgroundBlur_134_404"/>
<feBlend mode="normal" in="SourceGraphic" in2="effect1_backgroundBlur_134_404" result="shape"/>
</filter>
<filter id="filter1_b_134_404" x="-4" y="-5.09082" width="66.3181" height="68.0908" filterUnits="userSpaceOnUse" color-interpolation-filters="sRGB">
<feFlood flood-opacity="0" result="BackgroundImageFix"/>
<feGaussianBlur in="BackgroundImage" stdDeviation="12"/>
<feComposite in2="SourceAlpha" operator="in" result="effect1_backgroundBlur_134_404"/>
<feBlend mode="normal" in="SourceGraphic" in2="effect1_backgroundBlur_134_404" result="shape"/>
</filter>
<filter id="filter2_bdii_134_404" x="10.1365" y="9.04541" width="39.0454" height="36.0908" filterUnits="userSpaceOnUse" color-interpolation-filters="sRGB">
<feFlood flood-opacity="0" result="BackgroundImageFix"/>
<feGaussianBlur in="BackgroundImage" stdDeviation="7"/>
<feComposite in2="SourceAlpha" operator="in" result="effect1_backgroundBlur_134_404"/>
<feColorMatrix in="SourceAlpha" type="matrix" values="0 0 0 0 0 0 0 0 0 0 0 0 0 0 0 0 0 0 127 0" result="hardAlpha"/>
<feOffset dx="5" dy="5"/>
<feGaussianBlur stdDeviation="5"/>
<feColorMatrix type="matrix" values="0 0 0 0 0.164706 0 0 0 0 0.580392 0 0 0 0 0.756863 0 0 0 0.32 0"/>
<feBlend mode="normal" in2="effect1_backgroundBlur_134_404" result="effect2_dropShadow_134_404"/>
<feBlend mode="normal" in="SourceGraphic" in2="effect2_dropShadow_134_404" result="shape"/>
<feColorMatrix in="SourceAlpha" type="matrix" values="0 0 0 0 0 0 0 0 0 0 0 0 0 0 0 0 0 0 127 0" result="hardAlpha"/>
<feOffset dy="0.2"/>
<feComposite in2="hardAlpha" operator="arithmetic" k2="-1" k3="1"/>
<feColorMatrix type="matrix" values="0 0 0 0 1 0 0 0 0 1 0 0 0 0 1 0 0 0 0.25 0"/>
<feBlend mode="normal" in2="shape" result="effect3_innerShadow_134_404"/>
<feColorMatrix in="SourceAlpha" type="matrix" values="0 0 0 0 0 0 0 0 0 0 0 0 0 0 0 0 0 0 127 0" result="hardAlpha"/>
<feOffset dy="-0.2"/>
<feComposite in2="hardAlpha" operator="arithmetic" k2="-1" k3="1"/>
<feColorMatrix type="matrix" values="0 0 0 0 0.270588 0 0 0 0 0.705882 0 0 0 0 0.984314 0 0 0 0.43 0"/>
<feBlend mode="normal" in2="effect3_innerShadow_134_404" result="effect4_innerShadow_134_404"/>
</filter>
<linearGradient id="paint0_linear_134_404" x1="4.33333" y1="29.0538" x2="61.2083" y2="30.6788" gradientUnits="userSpaceOnUse">
<stop stop-color="white" stop-opacity="0.1"/>
<stop offset="1" stop-color="white" stop-opacity="0.1"/>
</linearGradient>
<linearGradient id="paint1_linear_134_404" x1="4.875" y1="3.05375" x2="60.6667" y2="61.5538" gradientUnits="userSpaceOnUse">
<stop stop-color="#00F0FF" stop-opacity="0.25"/>
<stop offset="0.515625" stop-color="#00FFFF"/>
<stop offset="1" stop-color="#00F0FF" stop-opacity="0.25"/>
</linearGradient>
<linearGradient id="paint2_linear_134_404" x1="20.9787" y1="20.3637" x2="36.6802" y2="38.0992" gradientUnits="userSpaceOnUse">
<stop stop-color="white" stop-opacity="0.25"/>
<stop offset="1" stop-color="white" stop-opacity="0"/>
</linearGradient>
<linearGradient id="paint3_linear_134_404" x1="30.666" y1="18.909" x2="26.9444" y2="43.2584" gradientUnits="userSpaceOnUse">
<stop stop-color="white" stop-opacity="0.88"/>
<stop offset="1" stop-color="white" stop-opacity="0"/>
</linearGradient>
</defs>
</svg>
