<svg width="65" height="65" viewBox="0 0 65 65" fill="none" xmlns="http://www.w3.org/2000/svg">
<g filter="url(#filter0_b_134_413)">
<rect width="65" height="65" rx="10" fill="url(#paint0_linear_134_413)"/>
<rect x="0.5" y="0.5" width="64" height="64" rx="9.5" stroke="url(#paint1_linear_134_413)"/>
</g>
<path d="M3.254 57V49.3H6.136C6.78867 49.3 7.34967 49.4063 7.819 49.619C8.28833 49.8243 8.64767 50.125 8.897 50.521C9.15367 50.9097 9.282 51.3827 9.282 51.94C9.282 52.4827 9.15367 52.952 8.897 53.348C8.64767 53.7367 8.28833 54.0373 7.819 54.25C7.34967 54.4553 6.78867 54.558 6.136 54.558H3.705L4.068 54.184V57H3.254ZM8.512 57L6.532 54.206H7.412L9.403 57H8.512ZM4.068 54.25L3.705 53.865H6.114C6.884 53.865 7.467 53.6963 7.863 53.359C8.26633 53.0217 8.468 52.5487 8.468 51.94C8.468 51.324 8.26633 50.8473 7.863 50.51C7.467 50.1727 6.884 50.004 6.114 50.004H3.705L4.068 49.619V54.25ZM13.4912 57.055C12.8899 57.055 12.3619 56.9303 11.9072 56.681C11.4526 56.4243 11.0969 56.076 10.8402 55.636C10.5836 55.1887 10.4552 54.679 10.4552 54.107C10.4552 53.535 10.5762 53.029 10.8182 52.589C11.0676 52.149 11.4049 51.8043 11.8302 51.555C12.2629 51.2983 12.7469 51.17 13.2822 51.17C13.8249 51.17 14.3052 51.2947 14.7232 51.544C15.1486 51.786 15.4822 52.1307 15.7242 52.578C15.9662 53.018 16.0872 53.5277 16.0872 54.107C16.0872 54.1437 16.0836 54.184 16.0762 54.228C16.0762 54.2647 16.0762 54.305 16.0762 54.349H11.0492V53.766H15.6582L15.3502 53.997C15.3502 53.579 15.2586 53.2087 15.0752 52.886C14.8992 52.556 14.6572 52.2993 14.3492 52.116C14.0412 51.9327 13.6856 51.841 13.2822 51.841C12.8862 51.841 12.5306 51.9327 12.2152 52.116C11.8999 52.2993 11.6542 52.556 11.4782 52.886C11.3022 53.216 11.2142 53.5937 11.2142 54.019V54.14C11.2142 54.58 11.3096 54.9687 11.5002 55.306C11.6982 55.636 11.9696 55.8963 12.3142 56.087C12.6662 56.2703 13.0659 56.362 13.5132 56.362C13.8652 56.362 14.1916 56.2997 14.4922 56.175C14.8002 56.0503 15.0642 55.8597 15.2842 55.603L15.7242 56.109C15.4676 56.417 15.1449 56.6517 14.7562 56.813C14.3749 56.9743 13.9532 57.055 13.4912 57.055ZM24.8929 51.17C25.3622 51.17 25.7692 51.2617 26.1139 51.445C26.4659 51.621 26.7372 51.8923 26.9279 52.259C27.1259 52.6257 27.2249 53.0877 27.2249 53.645V57H26.4439V53.722C26.4439 53.1133 26.2972 52.655 26.0039 52.347C25.7179 52.0317 25.3109 51.874 24.7829 51.874C24.3869 51.874 24.0422 51.9583 23.7489 52.127C23.4629 52.2883 23.2392 52.5267 23.0779 52.842C22.9239 53.15 22.8469 53.524 22.8469 53.964V57H22.0659V53.722C22.0659 53.1133 21.9192 52.655 21.6259 52.347C21.3326 52.0317 20.9219 51.874 20.3939 51.874C20.0052 51.874 19.6642 51.9583 19.3709 52.127C19.0776 52.2883 18.8502 52.5267 18.6889 52.842C18.5349 53.15 18.4579 53.524 18.4579 53.964V57H17.6769V51.225H18.4249V52.787L18.3039 52.512C18.4799 52.094 18.7622 51.7677 19.1509 51.533C19.5469 51.291 20.0126 51.17 20.5479 51.17C21.1126 51.17 21.5929 51.313 21.9889 51.599C22.3849 51.8777 22.6416 52.2993 22.7589 52.864L22.4509 52.743C22.6196 52.2737 22.9166 51.896 23.3419 51.61C23.7746 51.3167 24.2916 51.17 24.8929 51.17ZM29.3429 57V51.225H30.1239V57H29.3429ZM29.7389 49.949C29.5776 49.949 29.4419 49.894 29.3319 49.784C29.2219 49.674 29.1669 49.542 29.1669 49.388C29.1669 49.234 29.2219 49.1057 29.3319 49.003C29.4419 48.893 29.5776 48.838 29.7389 48.838C29.9002 48.838 30.0359 48.8893 30.1459 48.992C30.2559 49.0947 30.3109 49.223 30.3109 49.377C30.3109 49.5383 30.2559 49.674 30.1459 49.784C30.0432 49.894 29.9076 49.949 29.7389 49.949ZM35.245 51.17C35.7143 51.17 36.125 51.2617 36.477 51.445C36.8363 51.621 37.115 51.8923 37.313 52.259C37.5183 52.6257 37.621 53.0877 37.621 53.645V57H36.84V53.722C36.84 53.1133 36.686 52.655 36.378 52.347C36.0773 52.0317 35.652 51.874 35.102 51.874C34.6913 51.874 34.332 51.9583 34.024 52.127C33.7233 52.2883 33.4887 52.5267 33.32 52.842C33.1587 53.15 33.078 53.524 33.078 53.964V57H32.297V51.225H33.045V52.809L32.924 52.512C33.1073 52.094 33.4007 51.7677 33.804 51.533C34.2073 51.291 34.6877 51.17 35.245 51.17ZM42.0296 57.055C41.4796 57.055 40.9846 56.9303 40.5446 56.681C40.1119 56.4317 39.7709 56.087 39.5216 55.647C39.2723 55.1997 39.1476 54.6863 39.1476 54.107C39.1476 53.5203 39.2723 53.007 39.5216 52.567C39.7709 52.127 40.1119 51.786 40.5446 51.544C40.9846 51.2947 41.4796 51.17 42.0296 51.17C42.5356 51.17 42.9866 51.2837 43.3826 51.511C43.7859 51.7383 44.1049 52.072 44.3396 52.512C44.5816 52.9447 44.7026 53.4763 44.7026 54.107C44.7026 54.7303 44.5853 55.262 44.3506 55.702C44.1159 56.142 43.7969 56.4793 43.3936 56.714C42.9976 56.9413 42.5429 57.055 42.0296 57.055ZM42.0846 56.362C42.4953 56.362 42.8619 56.2703 43.1846 56.087C43.5146 55.8963 43.7713 55.6323 43.9546 55.295C44.1453 54.9503 44.2406 54.5543 44.2406 54.107C44.2406 53.6523 44.1453 53.2563 43.9546 52.919C43.7713 52.5817 43.5146 52.3213 43.1846 52.138C42.8619 51.9473 42.4953 51.852 42.0846 51.852C41.6813 51.852 41.3183 51.9473 40.9956 52.138C40.6729 52.3213 40.4163 52.5817 40.2256 52.919C40.0349 53.2563 39.9396 53.6523 39.9396 54.107C39.9396 54.5543 40.0349 54.9503 40.2256 55.295C40.4163 55.6323 40.6729 55.8963 40.9956 56.087C41.3183 56.2703 41.6813 56.362 42.0846 56.362ZM44.2626 57V55.262L44.3396 54.096L44.2296 52.93V48.838H45.0106V57H44.2626ZM49.6387 57.055C49.0373 57.055 48.5093 56.9303 48.0547 56.681C47.6 56.4243 47.2443 56.076 46.9877 55.636C46.731 55.1887 46.6027 54.679 46.6027 54.107C46.6027 53.535 46.7237 53.029 46.9657 52.589C47.215 52.149 47.5523 51.8043 47.9777 51.555C48.4103 51.2983 48.8943 51.17 49.4297 51.17C49.9723 51.17 50.4527 51.2947 50.8707 51.544C51.296 51.786 51.6297 52.1307 51.8717 52.578C52.1137 53.018 52.2347 53.5277 52.2347 54.107C52.2347 54.1437 52.231 54.184 52.2237 54.228C52.2237 54.2647 52.2237 54.305 52.2237 54.349H47.1967V53.766H51.8057L51.4977 53.997C51.4977 53.579 51.406 53.2087 51.2227 52.886C51.0467 52.556 50.8047 52.2993 50.4967 52.116C50.1887 51.9327 49.833 51.841 49.4297 51.841C49.0337 51.841 48.678 51.9327 48.3627 52.116C48.0473 52.2993 47.8017 52.556 47.6257 52.886C47.4497 53.216 47.3617 53.5937 47.3617 54.019V54.14C47.3617 54.58 47.457 54.9687 47.6477 55.306C47.8457 55.636 48.117 55.8963 48.4617 56.087C48.8137 56.2703 49.2133 56.362 49.6607 56.362C50.0127 56.362 50.339 56.2997 50.6397 56.175C50.9477 56.0503 51.2117 55.8597 51.4317 55.603L51.8717 56.109C51.615 56.417 51.2923 56.6517 50.9037 56.813C50.5223 56.9743 50.1007 57.055 49.6387 57.055ZM53.8244 57V51.225H54.5724V52.798L54.4954 52.523C54.6567 52.083 54.928 51.7493 55.3094 51.522C55.6907 51.2873 56.1637 51.17 56.7284 51.17V51.929C56.699 51.929 56.6697 51.929 56.6404 51.929C56.611 51.9217 56.5817 51.918 56.5524 51.918C55.9437 51.918 55.467 52.105 55.1224 52.479C54.7777 52.8457 54.6054 53.37 54.6054 54.052V57H53.8244ZM59.7689 57.055C59.2922 57.055 58.8412 56.989 58.4159 56.857C57.9906 56.7177 57.6569 56.5453 57.4149 56.34L57.7669 55.724C58.0016 55.9 58.3022 56.054 58.6689 56.186C59.0356 56.3107 59.4206 56.373 59.8239 56.373C60.3739 56.373 60.7699 56.2887 61.0119 56.12C61.2539 55.944 61.3749 55.713 61.3749 55.427C61.3749 55.2143 61.3052 55.0493 61.1659 54.932C61.0339 54.8073 60.8579 54.7157 60.6379 54.657C60.4179 54.591 60.1722 54.536 59.9009 54.492C59.6296 54.448 59.3582 54.3967 59.0869 54.338C58.8229 54.2793 58.5809 54.195 58.3609 54.085C58.1409 53.9677 57.9612 53.81 57.8219 53.612C57.6899 53.414 57.6239 53.15 57.6239 52.82C57.6239 52.5047 57.7119 52.2223 57.8879 51.973C58.0639 51.7237 58.3206 51.5293 58.6579 51.39C59.0026 51.2433 59.4206 51.17 59.9119 51.17C60.2859 51.17 60.6599 51.2213 61.0339 51.324C61.4079 51.4193 61.7159 51.5477 61.9579 51.709L61.6169 52.336C61.3602 52.16 61.0852 52.0353 60.7919 51.962C60.4986 51.8813 60.2052 51.841 59.9119 51.841C59.3912 51.841 59.0062 51.9327 58.7569 52.116C58.5149 52.292 58.3939 52.5193 58.3939 52.798C58.3939 53.018 58.4599 53.1903 58.5919 53.315C58.7312 53.4397 58.9109 53.5387 59.1309 53.612C59.3582 53.678 59.6039 53.733 59.8679 53.777C60.1392 53.821 60.4069 53.876 60.6709 53.942C60.9422 54.0007 61.1879 54.085 61.4079 54.195C61.6352 54.2977 61.8149 54.448 61.9469 54.646C62.0862 54.8367 62.1559 55.0897 62.1559 55.405C62.1559 55.7423 62.0606 56.0357 61.8699 56.285C61.6866 56.527 61.4152 56.7177 61.0559 56.857C60.7039 56.989 60.2749 57.055 59.7689 57.055Z" fill="white"/>
<path d="M27.5742 19.526C28.472 16.7628 28.9209 15.3812 29.8016 14.5005C30.5762 13.7258 31.5763 13.2163 32.6583 13.0449C33.8884 12.8501 35.2701 13.299 38.0333 14.1968L39.4741 14.665C42.2373 15.5628 43.6189 16.0117 44.4996 16.8924C45.2742 17.6671 45.7838 18.6671 45.9552 19.7491C46.15 20.9793 45.7011 22.3609 44.8033 25.1241L44.3351 26.5649C43.4373 29.3281 42.9884 30.7097 42.1077 31.5904C41.333 32.3651 40.333 32.8746 39.251 33.046C38.0208 33.2408 36.6392 32.7919 33.876 31.8941L32.4352 31.4259C29.672 30.5281 28.2904 30.0792 27.4097 29.1985C26.635 28.4239 26.1255 27.4238 25.9541 26.3418C25.7593 25.1116 26.2082 23.73 27.106 20.9668L27.5742 19.526Z" fill="white" fill-opacity="0.3"/>
<g filter="url(#filter1_b_134_413)">
<rect x="20" y="18.9092" width="20.0909" height="20.0909" rx="5" fill="white" fill-opacity="0.32"/>
<rect x="20.25" y="19.1592" width="19.5909" height="19.5909" rx="4.75" stroke="url(#paint2_linear_134_413)" stroke-width="0.5"/>
</g>
<g filter="url(#filter2_bdii_134_413)">
<path d="M28.5682 33.387V33.6306C28.5682 34.4746 29.2295 35.1591 30.0454 35.1591C30.8614 35.1591 31.5227 34.4746 31.5227 33.6299V33.3864M31.2273 24.5227V23.9312C31.2273 23.279 30.6986 22.75 30.0454 22.75C29.3923 22.75 28.8636 23.279 28.8636 23.9312V24.5227M26.2786 27.6883C26.2786 25.9396 27.6842 24.5227 29.4175 24.5227H30.6734C32.4073 24.5227 33.8122 25.9403 33.8122 27.6883V29.6424C33.8122 30.0126 33.9584 30.3682 34.2182 30.6302L34.6622 31.0781C34.922 31.34 35.0682 31.6957 35.0682 32.0659C35.0682 32.7953 34.4821 33.3864 33.7589 33.3864H26.332C25.6088 33.3864 25.0227 32.7953 25.0227 32.0659C25.0227 31.6957 25.1689 31.34 25.4287 31.0781L25.8727 30.6302C26.1325 30.3682 26.2786 30.0126 26.2786 29.6424V27.6883Z" stroke="url(#paint3_linear_134_413)" stroke-linecap="round" stroke-linejoin="round"/>
</g>
<defs>
<filter id="filter0_b_134_413" x="-10" y="-10" width="85" height="85" filterUnits="userSpaceOnUse" color-interpolation-filters="sRGB">
<feFlood flood-opacity="0" result="BackgroundImageFix"/>
<feGaussianBlur in="BackgroundImage" stdDeviation="5"/>
<feComposite in2="SourceAlpha" operator="in" result="effect1_backgroundBlur_134_413"/>
<feBlend mode="normal" in="SourceGraphic" in2="effect1_backgroundBlur_134_413" result="shape"/>
</filter>
<filter id="filter1_b_134_413" x="-4" y="-5.09082" width="68.0908" height="68.0908" filterUnits="userSpaceOnUse" color-interpolation-filters="sRGB">
<feFlood flood-opacity="0" result="BackgroundImageFix"/>
<feGaussianBlur in="BackgroundImage" stdDeviation="12"/>
<feComposite in2="SourceAlpha" operator="in" result="effect1_backgroundBlur_134_413"/>
<feBlend mode="normal" in="SourceGraphic" in2="effect1_backgroundBlur_134_413" result="shape"/>
</filter>
<filter id="filter2_bdii_134_413" x="10.5227" y="8.25" width="39.0454" height="41.4092" filterUnits="userSpaceOnUse" color-interpolation-filters="sRGB">
<feFlood flood-opacity="0" result="BackgroundImageFix"/>
<feGaussianBlur in="BackgroundImage" stdDeviation="7"/>
<feComposite in2="SourceAlpha" operator="in" result="effect1_backgroundBlur_134_413"/>
<feColorMatrix in="SourceAlpha" type="matrix" values="0 0 0 0 0 0 0 0 0 0 0 0 0 0 0 0 0 0 127 0" result="hardAlpha"/>
<feOffset dx="4" dy="4"/>
<feGaussianBlur stdDeviation="5"/>
<feColorMatrix type="matrix" values="0 0 0 0 0.184314 0 0 0 0 0.721569 0 0 0 0 0.207843 0 0 0 0.5 0"/>
<feBlend mode="normal" in2="effect1_backgroundBlur_134_413" result="effect2_dropShadow_134_413"/>
<feBlend mode="normal" in="SourceGraphic" in2="effect2_dropShadow_134_413" result="shape"/>
<feColorMatrix in="SourceAlpha" type="matrix" values="0 0 0 0 0 0 0 0 0 0 0 0 0 0 0 0 0 0 127 0" result="hardAlpha"/>
<feOffset dy="0.2"/>
<feComposite in2="hardAlpha" operator="arithmetic" k2="-1" k3="1"/>
<feColorMatrix type="matrix" values="0 0 0 0 1 0 0 0 0 1 0 0 0 0 1 0 0 0 0.25 0"/>
<feBlend mode="normal" in2="shape" result="effect3_innerShadow_134_413"/>
<feColorMatrix in="SourceAlpha" type="matrix" values="0 0 0 0 0 0 0 0 0 0 0 0 0 0 0 0 0 0 127 0" result="hardAlpha"/>
<feOffset dy="-0.2"/>
<feComposite in2="hardAlpha" operator="arithmetic" k2="-1" k3="1"/>
<feColorMatrix type="matrix" values="0 0 0 0 0.138108 0 0 0 0 0.770833 0 0 0 0 0.20138 0 0 0 0.35 0"/>
<feBlend mode="normal" in2="effect3_innerShadow_134_413" result="effect4_innerShadow_134_413"/>
</filter>
<linearGradient id="paint0_linear_134_413" x1="4.33333" y1="29.0538" x2="61.2083" y2="30.6788" gradientUnits="userSpaceOnUse">
<stop stop-color="white" stop-opacity="0.1"/>
<stop offset="1" stop-color="white" stop-opacity="0.1"/>
</linearGradient>
<linearGradient id="paint1_linear_134_413" x1="4.875" y1="3.05375" x2="60.6667" y2="61.5538" gradientUnits="userSpaceOnUse">
<stop stop-color="#00F0FF" stop-opacity="0.25"/>
<stop offset="0.515625" stop-color="#00FFFF"/>
<stop offset="1" stop-color="#00F0FF" stop-opacity="0.25"/>
</linearGradient>
<linearGradient id="paint2_linear_134_413" x1="23.1981" y1="21.2498" x2="36.014" y2="37.1226" gradientUnits="userSpaceOnUse">
<stop stop-color="white" stop-opacity="0.25"/>
<stop offset="1" stop-color="white" stop-opacity="0"/>
</linearGradient>
<linearGradient id="paint3_linear_134_413" x1="31.5523" y1="15.5114" x2="20.6673" y2="56.2068" gradientUnits="userSpaceOnUse">
<stop stop-color="white" stop-opacity="0.88"/>
<stop offset="1" stop-color="white" stop-opacity="0"/>
</linearGradient>
</defs>
</svg>
