<svg width="65" height="65" viewBox="0 0 65 65" fill="none" xmlns="http://www.w3.org/2000/svg">
<g filter="url(#filter0_b_134_396)">
<rect width="65" height="65" rx="10" fill="url(#paint0_linear_134_396)"/>
<rect x="0.5" y="0.5" width="64" height="64" rx="9.5" stroke="url(#paint1_linear_134_396)"/>
</g>
<path d="M20.684 59.072C20.06 59.072 19.46 58.972 18.884 58.772C18.316 58.564 17.876 58.3 17.564 57.98L17.912 57.296C18.208 57.584 18.604 57.828 19.1 58.028C19.604 58.22 20.132 58.316 20.684 58.316C21.212 58.316 21.64 58.252 21.968 58.124C22.304 57.988 22.548 57.808 22.7 57.584C22.86 57.36 22.94 57.112 22.94 56.84C22.94 56.512 22.844 56.248 22.652 56.048C22.468 55.848 22.224 55.692 21.92 55.58C21.616 55.46 21.28 55.356 20.912 55.268C20.544 55.18 20.176 55.088 19.808 54.992C19.44 54.888 19.1 54.752 18.788 54.584C18.484 54.416 18.236 54.196 18.044 53.924C17.86 53.644 17.768 53.28 17.768 52.832C17.768 52.416 17.876 52.036 18.092 51.692C18.316 51.34 18.656 51.06 19.112 50.852C19.568 50.636 20.152 50.528 20.864 50.528C21.336 50.528 21.804 50.596 22.268 50.732C22.732 50.86 23.132 51.04 23.468 51.272L23.168 51.98C22.808 51.74 22.424 51.564 22.016 51.452C21.616 51.34 21.228 51.284 20.852 51.284C20.348 51.284 19.932 51.352 19.604 51.488C19.276 51.624 19.032 51.808 18.872 52.04C18.72 52.264 18.644 52.52 18.644 52.808C18.644 53.136 18.736 53.4 18.92 53.6C19.112 53.8 19.36 53.956 19.664 54.068C19.976 54.18 20.316 54.28 20.684 54.368C21.052 54.456 21.416 54.552 21.776 54.656C22.144 54.76 22.48 54.896 22.784 55.064C23.096 55.224 23.344 55.44 23.528 55.712C23.72 55.984 23.816 56.34 23.816 56.78C23.816 57.188 23.704 57.568 23.48 57.92C23.256 58.264 22.912 58.544 22.448 58.76C21.992 58.968 21.404 59.072 20.684 59.072ZM28.7868 52.64C29.2988 52.64 29.7468 52.74 30.1308 52.94C30.5228 53.132 30.8268 53.428 31.0428 53.828C31.2668 54.228 31.3788 54.732 31.3788 55.34V59H30.5268V55.424C30.5268 54.76 30.3588 54.26 30.0228 53.924C29.6948 53.58 29.2308 53.408 28.6308 53.408C28.1828 53.408 27.7908 53.5 27.4548 53.684C27.1268 53.86 26.8708 54.12 26.6868 54.464C26.5108 54.8 26.4228 55.208 26.4228 55.688V59H25.5708V50.096H26.4228V54.428L26.2548 54.104C26.4548 53.648 26.7748 53.292 27.2148 53.036C27.6548 52.772 28.1788 52.64 28.7868 52.64ZM36.2482 59.06C35.6402 59.06 35.0922 58.924 34.6042 58.652C34.1242 58.372 33.7442 57.992 33.4642 57.512C33.1842 57.024 33.0442 56.468 33.0442 55.844C33.0442 55.212 33.1842 54.656 33.4642 54.176C33.7442 53.696 34.1242 53.32 34.6042 53.048C35.0842 52.776 35.6322 52.64 36.2482 52.64C36.8722 52.64 37.4242 52.776 37.9042 53.048C38.3922 53.32 38.7722 53.696 39.0442 54.176C39.3242 54.656 39.4642 55.212 39.4642 55.844C39.4642 56.468 39.3242 57.024 39.0442 57.512C38.7722 57.992 38.3922 58.372 37.9042 58.652C37.4162 58.924 36.8642 59.06 36.2482 59.06ZM36.2482 58.304C36.7042 58.304 37.1082 58.204 37.4602 58.004C37.8122 57.796 38.0882 57.508 38.2882 57.14C38.4962 56.764 38.6002 56.332 38.6002 55.844C38.6002 55.348 38.4962 54.916 38.2882 54.548C38.0882 54.18 37.8122 53.896 37.4602 53.696C37.1082 53.488 36.7082 53.384 36.2602 53.384C35.8122 53.384 35.4122 53.488 35.0602 53.696C34.7082 53.896 34.4282 54.18 34.2202 54.548C34.0122 54.916 33.9082 55.348 33.9082 55.844C33.9082 56.332 34.0122 56.764 34.2202 57.14C34.4282 57.508 34.7082 57.796 35.0602 58.004C35.4122 58.204 35.8082 58.304 36.2482 58.304ZM44.4556 59.06C43.9116 59.06 43.4196 58.936 42.9796 58.688C42.5396 58.432 42.1876 58.068 41.9236 57.596C41.6676 57.116 41.5396 56.532 41.5396 55.844C41.5396 55.156 41.6676 54.576 41.9236 54.104C42.1796 53.624 42.5276 53.26 42.9676 53.012C43.4076 52.764 43.9036 52.64 44.4556 52.64C45.0556 52.64 45.5916 52.776 46.0636 53.048C46.5436 53.312 46.9196 53.688 47.1916 54.176C47.4636 54.656 47.5996 55.212 47.5996 55.844C47.5996 56.484 47.4636 57.044 47.1916 57.524C46.9196 58.004 46.5436 58.38 46.0636 58.652C45.5916 58.924 45.0556 59.06 44.4556 59.06ZM41.2036 61.328V52.7H42.0196V54.596L41.9356 55.856L42.0556 57.128V61.328H41.2036ZM44.3956 58.304C44.8436 58.304 45.2436 58.204 45.5956 58.004C45.9476 57.796 46.2276 57.508 46.4356 57.14C46.6436 56.764 46.7476 56.332 46.7476 55.844C46.7476 55.356 46.6436 54.928 46.4356 54.56C46.2276 54.192 45.9476 53.904 45.5956 53.696C45.2436 53.488 44.8436 53.384 44.3956 53.384C43.9476 53.384 43.5436 53.488 43.1836 53.696C42.8316 53.904 42.5516 54.192 42.3436 54.56C42.1436 54.928 42.0436 55.356 42.0436 55.844C42.0436 56.332 42.1436 56.764 42.3436 57.14C42.5516 57.508 42.8316 57.796 43.1836 58.004C43.5436 58.204 43.9476 58.304 44.3956 58.304Z" fill="white"/>
<circle cx="36.5454" cy="22.4545" r="9.45455" fill="white" fill-opacity="0.25"/>
<g filter="url(#filter1_b_134_396)">
<path fill-rule="evenodd" clip-rule="evenodd" d="M37.7273 32.9727V24.9366C37.7273 24.2181 37.3489 23.555 36.7343 23.1963L29.8566 19.1782C29.242 18.8195 28.4853 18.8195 27.8706 19.1782L20.993 23.1963C20.3783 23.555 20 24.2191 20 24.9366V32.9717C20 33.6901 20.3783 34.3533 20.993 34.712L27.8706 38.7311C28.4853 39.0898 29.242 39.0898 29.8566 38.7311L36.7343 34.713C37.3489 34.3543 37.7273 33.6901 37.7273 32.9727Z" fill="white" fill-opacity="0.32"/>
<path fill-rule="evenodd" clip-rule="evenodd" d="M37.7273 32.9727V24.9366C37.7273 24.2181 37.3489 23.555 36.7343 23.1963L29.8566 19.1782C29.242 18.8195 28.4853 18.8195 27.8706 19.1782L20.993 23.1963C20.3783 23.555 20 24.2191 20 24.9366V32.9717C20 33.6901 20.3783 34.3533 20.993 34.712L27.8706 38.7311C28.4853 39.0898 29.242 39.0898 29.8566 38.7311L36.7343 34.713C37.3489 34.3543 37.7273 33.6901 37.7273 32.9727Z" stroke="url(#paint2_linear_134_396)" stroke-width="0.5" stroke-linecap="round" stroke-linejoin="round"/>
</g>
<g filter="url(#filter2_bdii_134_396)">
<path fill-rule="evenodd" clip-rule="evenodd" d="M36.3366 27.0827C37.3016 26.5453 37.6483 25.3274 37.111 24.3624C36.5736 23.3973 35.3557 23.0506 34.3906 23.5879L28.8749 26.6592L23.5014 23.5976C22.5417 23.0508 21.3204 23.3855 20.7736 24.3452C20.2268 25.3049 20.5615 26.5262 21.5212 27.0731L26.8636 30.117V36.341C26.8636 37.4456 27.759 38.341 28.8636 38.341C29.9682 38.341 30.8636 37.4456 30.8636 36.341V30.1302L36.3366 27.0827Z" fill="url(#paint3_linear_134_396)"/>
</g>
<defs>
<filter id="filter0_b_134_396" x="-10" y="-10" width="85" height="85" filterUnits="userSpaceOnUse" color-interpolation-filters="sRGB">
<feFlood flood-opacity="0" result="BackgroundImageFix"/>
<feGaussianBlur in="BackgroundImage" stdDeviation="5"/>
<feComposite in2="SourceAlpha" operator="in" result="effect1_backgroundBlur_134_396"/>
<feBlend mode="normal" in="SourceGraphic" in2="effect1_backgroundBlur_134_396" result="shape"/>
</filter>
<filter id="filter1_b_134_396" x="-4.25" y="-5.34082" width="66.2273" height="68.5908" filterUnits="userSpaceOnUse" color-interpolation-filters="sRGB">
<feFlood flood-opacity="0" result="BackgroundImageFix"/>
<feGaussianBlur in="BackgroundImage" stdDeviation="12"/>
<feComposite in2="SourceAlpha" operator="in" result="effect1_backgroundBlur_134_396"/>
<feBlend mode="normal" in="SourceGraphic" in2="effect1_backgroundBlur_134_396" result="shape"/>
</filter>
<filter id="filter2_bdii_134_396" x="6.51099" y="9.33496" width="45.853" height="44.0059" filterUnits="userSpaceOnUse" color-interpolation-filters="sRGB">
<feFlood flood-opacity="0" result="BackgroundImageFix"/>
<feGaussianBlur in="BackgroundImage" stdDeviation="7"/>
<feComposite in2="SourceAlpha" operator="in" result="effect1_backgroundBlur_134_396"/>
<feColorMatrix in="SourceAlpha" type="matrix" values="0 0 0 0 0 0 0 0 0 0 0 0 0 0 0 0 0 0 127 0" result="hardAlpha"/>
<feOffset dx="5" dy="5"/>
<feGaussianBlur stdDeviation="5"/>
<feColorMatrix type="matrix" values="0 0 0 0 0.7375 0 0 0 0 0.398711 0 0 0 0 0.350313 0 0 0 0.5 0"/>
<feBlend mode="normal" in2="effect1_backgroundBlur_134_396" result="effect2_dropShadow_134_396"/>
<feBlend mode="normal" in="SourceGraphic" in2="effect2_dropShadow_134_396" result="shape"/>
<feColorMatrix in="SourceAlpha" type="matrix" values="0 0 0 0 0 0 0 0 0 0 0 0 0 0 0 0 0 0 127 0" result="hardAlpha"/>
<feOffset dy="0.2"/>
<feComposite in2="hardAlpha" operator="arithmetic" k2="-1" k3="1"/>
<feColorMatrix type="matrix" values="0 0 0 0 1 0 0 0 0 1 0 0 0 0 1 0 0 0 0.25 0"/>
<feBlend mode="normal" in2="shape" result="effect3_innerShadow_134_396"/>
<feColorMatrix in="SourceAlpha" type="matrix" values="0 0 0 0 0 0 0 0 0 0 0 0 0 0 0 0 0 0 127 0" result="hardAlpha"/>
<feOffset dy="-0.2"/>
<feComposite in2="hardAlpha" operator="arithmetic" k2="-1" k3="1"/>
<feColorMatrix type="matrix" values="0 0 0 0 0.984314 0 0 0 0 0.484706 0 0 0 0 0.270588 0 0 0 0.35 0"/>
<feBlend mode="normal" in2="effect3_innerShadow_134_396" result="effect4_innerShadow_134_396"/>
</filter>
<linearGradient id="paint0_linear_134_396" x1="4.33333" y1="29.0538" x2="61.2083" y2="30.6788" gradientUnits="userSpaceOnUse">
<stop stop-color="white" stop-opacity="0.1"/>
<stop offset="1" stop-color="white" stop-opacity="0.1"/>
</linearGradient>
<linearGradient id="paint1_linear_134_396" x1="4.875" y1="3.05375" x2="60.6667" y2="61.5538" gradientUnits="userSpaceOnUse">
<stop stop-color="#00F0FF" stop-opacity="0.25"/>
<stop offset="0.515625" stop-color="#00FFFF"/>
<stop offset="1" stop-color="#00F0FF" stop-opacity="0.25"/>
</linearGradient>
<linearGradient id="paint2_linear_134_396" x1="22.8219" y1="21.2498" x2="35.8806" y2="35.5206" gradientUnits="userSpaceOnUse">
<stop stop-color="white" stop-opacity="0.25"/>
<stop offset="1" stop-color="white" stop-opacity="0"/>
</linearGradient>
<linearGradient id="paint3_linear_134_396" x1="31.4654" y1="14.5814" x2="21.6631" y2="65.4244" gradientUnits="userSpaceOnUse">
<stop stop-color="white" stop-opacity="0.88"/>
<stop offset="1" stop-color="white" stop-opacity="0"/>
</linearGradient>
</defs>
</svg>
