<svg width="70" height="70" viewBox="0 0 70 70" fill="none" xmlns="http://www.w3.org/2000/svg">
<g filter="url(#filter0_b_1049_5)">
<path d="M35 69C16.2207 69 1 53.7793 1 35C1 16.2207 16.2207 1 35 1C53.7793 1 69 16.2207 69 35C69 53.7793 53.7793 69 35 69Z" fill="white" fill-opacity="0.32"/>
<path d="M35 69C16.2207 69 1 53.7793 1 35C1 16.2207 16.2207 1 35 1C53.7793 1 69 16.2207 69 35C69 53.7793 53.7793 69 35 69Z" stroke="url(#paint0_linear_1049_5)" stroke-linecap="round" stroke-linejoin="round"/>
</g>
<g filter="url(#filter1_b_1049_5)">
<path d="M47 29.9004C47 36.4728 41.6274 41.8008 35 41.8008C28.3726 41.8008 23 36.4728 23 29.9004C23 23.328 28.3726 18 35 18C41.6274 18 47 23.328 47 29.9004Z" fill="white" fill-opacity="0.6"/>
<path d="M45.4646 45.5886C49.4105 47.4942 47.1322 51.8096 42.7942 52.4286C40.5227 52.7527 37.8545 53 35 53C32.1455 53 29.4773 52.7527 27.2058 52.4286C22.8678 51.8096 20.5895 47.4942 24.5354 45.5886C27.2379 44.2836 30.9296 43.4797 35 43.4797C39.0704 43.4797 42.7621 44.2836 45.4646 45.5886Z" fill="white" fill-opacity="0.6"/>
<path d="M46.75 29.9004C46.75 36.3328 41.4913 41.5508 35 41.5508C28.5087 41.5508 23.25 36.3328 23.25 29.9004C23.25 23.468 28.5087 18.25 35 18.25C41.4913 18.25 46.75 23.468 46.75 29.9004ZM42.7589 52.1811C40.4966 52.5039 37.8404 52.75 35 52.75C32.1596 52.75 29.5034 52.5039 27.2411 52.1811C25.1388 51.8811 23.5693 50.6896 22.9927 49.3897C22.7062 48.744 22.6654 48.0772 22.91 47.4673C23.1549 46.8564 23.6992 46.2701 24.6441 45.8138C27.3063 44.5282 30.9594 43.7297 35 43.7297C39.0406 43.7297 42.6937 44.5282 45.3559 45.8138C46.3008 46.2701 46.8451 46.8564 47.09 47.4673C47.3346 48.0772 47.2938 48.744 47.0073 49.3897C46.4307 50.6896 44.8612 51.8811 42.7589 52.1811Z" stroke="url(#paint1_linear_1049_5)" stroke-width="0.5"/>
</g>
<defs>
<filter id="filter0_b_1049_5" x="-23.5" y="-23.5" width="117" height="117" filterUnits="userSpaceOnUse" color-interpolation-filters="sRGB">
<feFlood flood-opacity="0" result="BackgroundImageFix"/>
<feGaussianBlur in="BackgroundImage" stdDeviation="12"/>
<feComposite in2="SourceAlpha" operator="in" result="effect1_backgroundBlur_1049_5"/>
<feBlend mode="normal" in="SourceGraphic" in2="effect1_backgroundBlur_1049_5" result="shape"/>
</filter>
<filter id="filter1_b_1049_5" x="-1.50049" y="-6" width="73.001" height="83" filterUnits="userSpaceOnUse" color-interpolation-filters="sRGB">
<feFlood flood-opacity="0" result="BackgroundImageFix"/>
<feGaussianBlur in="BackgroundImage" stdDeviation="12"/>
<feComposite in2="SourceAlpha" operator="in" result="effect1_backgroundBlur_1049_5"/>
<feBlend mode="normal" in="SourceGraphic" in2="effect1_backgroundBlur_1049_5" result="shape"/>
</filter>
<linearGradient id="paint0_linear_1049_5" x1="4.63303" y1="5.923" x2="56.9662" y2="70.7564" gradientUnits="userSpaceOnUse">
<stop stop-color="#45B4FB"/>
<stop offset="1" stop-color="#BC50FF"/>
</linearGradient>
<linearGradient id="paint1_linear_1049_5" x1="21.6028" y1="20.5339" x2="49.1097" y2="49.7428" gradientUnits="userSpaceOnUse">
<stop stop-color="white" stop-opacity="0.25"/>
<stop offset="1" stop-color="white" stop-opacity="0"/>
</linearGradient>
</defs>
</svg>
