<svg width="65" height="65" viewBox="0 0 65 65" fill="none" xmlns="http://www.w3.org/2000/svg">
<g filter="url(#filter0_b_134_388)">
<rect width="65" height="65" rx="10" fill="url(#paint0_linear_134_388)"/>
<rect x="0.5" y="0.5" width="64" height="64" rx="9.5" stroke="url(#paint1_linear_134_388)"/>
</g>
<path d="M9.276 59L6.444 50.6H7.356L10.008 58.508H9.552L12.288 50.6H13.104L15.804 58.508H15.372L18.048 50.6H18.9L16.068 59H15.132L12.552 51.5H12.792L10.2 59H9.276ZM22.5437 59.06C21.8877 59.06 21.3117 58.924 20.8157 58.652C20.3197 58.372 19.9317 57.992 19.6517 57.512C19.3717 57.024 19.2317 56.468 19.2317 55.844C19.2317 55.22 19.3637 54.668 19.6277 54.188C19.8997 53.708 20.2677 53.332 20.7317 53.06C21.2037 52.78 21.7317 52.64 22.3157 52.64C22.9077 52.64 23.4317 52.776 23.8877 53.048C24.3517 53.312 24.7157 53.688 24.9797 54.176C25.2437 54.656 25.3757 55.212 25.3757 55.844C25.3757 55.884 25.3717 55.928 25.3637 55.976C25.3637 56.016 25.3637 56.06 25.3637 56.108H19.8797V55.472H24.9077L24.5717 55.724C24.5717 55.268 24.4717 54.864 24.2717 54.512C24.0797 54.152 23.8157 53.872 23.4797 53.672C23.1437 53.472 22.7557 53.372 22.3157 53.372C21.8837 53.372 21.4957 53.472 21.1517 53.672C20.8077 53.872 20.5397 54.152 20.3477 54.512C20.1557 54.872 20.0597 55.284 20.0597 55.748V55.88C20.0597 56.36 20.1637 56.784 20.3717 57.152C20.5877 57.512 20.8837 57.796 21.2597 58.004C21.6437 58.204 22.0797 58.304 22.5677 58.304C22.9517 58.304 23.3077 58.236 23.6357 58.1C23.9717 57.964 24.2597 57.756 24.4997 57.476L24.9797 58.028C24.6997 58.364 24.3477 58.62 23.9237 58.796C23.5077 58.972 23.0477 59.06 22.5437 59.06ZM27.1099 59V50.096H27.9619V59H27.1099ZM30.3325 59V50.096H31.1845V59H30.3325ZM36.7712 52.64C37.2832 52.64 37.7312 52.74 38.1152 52.94C38.5072 53.132 38.8112 53.428 39.0272 53.828C39.2512 54.228 39.3632 54.732 39.3632 55.34V59H38.5112V55.424C38.5112 54.76 38.3432 54.26 38.0072 53.924C37.6792 53.58 37.2152 53.408 36.6152 53.408C36.1672 53.408 35.7752 53.5 35.4392 53.684C35.1112 53.86 34.8552 54.12 34.6712 54.464C34.4952 54.8 34.4072 55.208 34.4072 55.688V59H33.5552V52.7H34.3712V54.428L34.2392 54.104C34.4392 53.648 34.7592 53.292 35.1992 53.036C35.6392 52.772 36.1632 52.64 36.7712 52.64ZM44.3406 59.06C43.6846 59.06 43.1086 58.924 42.6126 58.652C42.1166 58.372 41.7286 57.992 41.4486 57.512C41.1686 57.024 41.0286 56.468 41.0286 55.844C41.0286 55.22 41.1606 54.668 41.4246 54.188C41.6966 53.708 42.0646 53.332 42.5286 53.06C43.0006 52.78 43.5286 52.64 44.1126 52.64C44.7046 52.64 45.2286 52.776 45.6846 53.048C46.1486 53.312 46.5126 53.688 46.7766 54.176C47.0406 54.656 47.1726 55.212 47.1726 55.844C47.1726 55.884 47.1686 55.928 47.1606 55.976C47.1606 56.016 47.1606 56.06 47.1606 56.108H41.6766V55.472H46.7046L46.3686 55.724C46.3686 55.268 46.2686 54.864 46.0686 54.512C45.8766 54.152 45.6126 53.872 45.2766 53.672C44.9406 53.472 44.5526 53.372 44.1126 53.372C43.6806 53.372 43.2926 53.472 42.9486 53.672C42.6046 53.872 42.3366 54.152 42.1446 54.512C41.9526 54.872 41.8566 55.284 41.8566 55.748V55.88C41.8566 56.36 41.9606 56.784 42.1686 57.152C42.3846 57.512 42.6806 57.796 43.0566 58.004C43.4406 58.204 43.8766 58.304 44.3646 58.304C44.7486 58.304 45.1046 58.236 45.4326 58.1C45.7686 57.964 46.0566 57.756 46.2966 57.476L46.7766 58.028C46.4966 58.364 46.1446 58.62 45.7206 58.796C45.3046 58.972 44.8446 59.06 44.3406 59.06ZM50.5988 59.06C50.0788 59.06 49.5868 58.988 49.1228 58.844C48.6588 58.692 48.2948 58.504 48.0308 58.28L48.4148 57.608C48.6708 57.8 48.9988 57.968 49.3988 58.112C49.7988 58.248 50.2188 58.316 50.6588 58.316C51.2588 58.316 51.6908 58.224 51.9548 58.04C52.2188 57.848 52.3508 57.596 52.3508 57.284C52.3508 57.052 52.2748 56.872 52.1228 56.744C51.9788 56.608 51.7868 56.508 51.5468 56.444C51.3068 56.372 51.0388 56.312 50.7428 56.264C50.4468 56.216 50.1508 56.16 49.8548 56.096C49.5668 56.032 49.3028 55.94 49.0628 55.82C48.8228 55.692 48.6268 55.52 48.4748 55.304C48.3308 55.088 48.2588 54.8 48.2588 54.44C48.2588 54.096 48.3548 53.788 48.5468 53.516C48.7388 53.244 49.0188 53.032 49.3868 52.88C49.7628 52.72 50.2188 52.64 50.7548 52.64C51.1628 52.64 51.5708 52.696 51.9788 52.808C52.3868 52.912 52.7228 53.052 52.9868 53.228L52.6148 53.912C52.3348 53.72 52.0348 53.584 51.7148 53.504C51.3948 53.416 51.0748 53.372 50.7548 53.372C50.1868 53.372 49.7668 53.472 49.4948 53.672C49.2308 53.864 49.0988 54.112 49.0988 54.416C49.0988 54.656 49.1708 54.844 49.3148 54.98C49.4668 55.116 49.6628 55.224 49.9028 55.304C50.1508 55.376 50.4188 55.436 50.7068 55.484C51.0028 55.532 51.2948 55.592 51.5828 55.664C51.8788 55.728 52.1468 55.82 52.3868 55.94C52.6348 56.052 52.8308 56.216 52.9748 56.432C53.1268 56.64 53.2028 56.916 53.2028 57.26C53.2028 57.628 53.0988 57.948 52.8908 58.22C52.6908 58.484 52.3948 58.692 52.0028 58.844C51.6188 58.988 51.1508 59.06 50.5988 59.06ZM56.4581 59.06C55.9381 59.06 55.4461 58.988 54.9821 58.844C54.5181 58.692 54.1541 58.504 53.8901 58.28L54.2741 57.608C54.5301 57.8 54.8581 57.968 55.2581 58.112C55.6581 58.248 56.0781 58.316 56.5181 58.316C57.1181 58.316 57.5501 58.224 57.8141 58.04C58.0781 57.848 58.2101 57.596 58.2101 57.284C58.2101 57.052 58.1341 56.872 57.9821 56.744C57.8381 56.608 57.6461 56.508 57.4061 56.444C57.1661 56.372 56.8981 56.312 56.6021 56.264C56.3061 56.216 56.0101 56.16 55.7141 56.096C55.4261 56.032 55.1621 55.94 54.9221 55.82C54.6821 55.692 54.4861 55.52 54.3341 55.304C54.1901 55.088 54.1181 54.8 54.1181 54.44C54.1181 54.096 54.2141 53.788 54.4061 53.516C54.5981 53.244 54.8781 53.032 55.2461 52.88C55.6221 52.72 56.0781 52.64 56.6141 52.64C57.0221 52.64 57.4301 52.696 57.8381 52.808C58.2461 52.912 58.5821 53.052 58.8461 53.228L58.4741 53.912C58.1941 53.72 57.8941 53.584 57.5741 53.504C57.2541 53.416 56.9341 53.372 56.6141 53.372C56.0461 53.372 55.6261 53.472 55.3541 53.672C55.0901 53.864 54.9581 54.112 54.9581 54.416C54.9581 54.656 55.0301 54.844 55.1741 54.98C55.3261 55.116 55.5221 55.224 55.7621 55.304C56.0101 55.376 56.2781 55.436 56.5661 55.484C56.8621 55.532 57.1541 55.592 57.4421 55.664C57.7381 55.728 58.0061 55.82 58.2461 55.94C58.4941 56.052 58.6901 56.216 58.8341 56.432C58.9861 56.64 59.0621 56.916 59.0621 57.26C59.0621 57.628 58.9581 57.948 58.7501 58.22C58.5501 58.484 58.2541 58.692 57.8621 58.844C57.4781 58.988 57.0101 59.06 56.4581 59.06Z" fill="white"/>
<path d="M40.3576 13C43.1343 13 45 15.5265 45 17.8835C45 22.6567 37.2568 26.5652 37.1167 26.5652C36.9765 26.5652 29.2334 22.6567 29.2334 17.8835C29.2334 15.5265 31.0991 13 33.8758 13C35.47 13 36.5123 13.7715 37.1167 14.4498C37.7211 13.7715 38.7634 13 40.3576 13Z" fill="white" fill-opacity="0.25"/>
<g filter="url(#filter1_b_134_388)">
<path d="M33.3565 16C36.94 16 39.3478 19.2634 39.3478 22.3078C39.3478 28.4733 29.3548 33.5217 29.1739 33.5217C28.993 33.5217 19 28.4733 19 22.3078C19 19.2634 21.4078 16 24.9913 16C27.0487 16 28.3939 16.9965 29.1739 17.8726C29.9539 16.9965 31.2991 16 33.3565 16Z" fill="white" fill-opacity="0.32"/>
<path d="M33.3565 16C36.94 16 39.3478 19.2634 39.3478 22.3078C39.3478 28.4733 29.3548 33.5217 29.1739 33.5217C28.993 33.5217 19 28.4733 19 22.3078C19 19.2634 21.4078 16 24.9913 16C27.0487 16 28.3939 16.9965 29.1739 17.8726C29.9539 16.9965 31.2991 16 33.3565 16Z" stroke="url(#paint2_linear_134_388)" stroke-width="0.5" stroke-linecap="round" stroke-linejoin="round"/>
</g>
<defs>
<filter id="filter0_b_134_388" x="-10" y="-10" width="85" height="85" filterUnits="userSpaceOnUse" color-interpolation-filters="sRGB">
<feFlood flood-opacity="0" result="BackgroundImageFix"/>
<feGaussianBlur in="BackgroundImage" stdDeviation="5"/>
<feComposite in2="SourceAlpha" operator="in" result="effect1_backgroundBlur_134_388"/>
<feBlend mode="normal" in="SourceGraphic" in2="effect1_backgroundBlur_134_388" result="shape"/>
</filter>
<filter id="filter1_b_134_388" x="-5.25" y="-8.25" width="68.8479" height="66.022" filterUnits="userSpaceOnUse" color-interpolation-filters="sRGB">
<feFlood flood-opacity="0" result="BackgroundImageFix"/>
<feGaussianBlur in="BackgroundImage" stdDeviation="12"/>
<feComposite in2="SourceAlpha" operator="in" result="effect1_backgroundBlur_134_388"/>
<feBlend mode="normal" in="SourceGraphic" in2="effect1_backgroundBlur_134_388" result="shape"/>
</filter>
<linearGradient id="paint0_linear_134_388" x1="4.33333" y1="29.0538" x2="61.2083" y2="30.6788" gradientUnits="userSpaceOnUse">
<stop stop-color="white" stop-opacity="0.1"/>
<stop offset="1" stop-color="white" stop-opacity="0.1"/>
</linearGradient>
<linearGradient id="paint1_linear_134_388" x1="4.875" y1="3.05375" x2="60.6667" y2="61.5538" gradientUnits="userSpaceOnUse">
<stop stop-color="#00F0FF" stop-opacity="0.25"/>
<stop offset="0.515625" stop-color="#00FFFF"/>
<stop offset="1" stop-color="#00F0FF" stop-opacity="0.25"/>
</linearGradient>
<linearGradient id="paint2_linear_134_388" x1="20.0871" y1="17.2685" x2="33.0177" y2="35.8714" gradientUnits="userSpaceOnUse">
<stop stop-color="white" stop-opacity="0.25"/>
<stop offset="1" stop-color="white" stop-opacity="0"/>
</linearGradient>
</defs>
</svg>
